<?xml version="1.0" encoding="UTF-8" standalone="no"?>
<!DOCTYPE svg PUBLIC "-//W3C//DTD SVG 1.1//EN" "http://www.w3.org/Graphics/SVG/1.1/DTD/svg11.dtd">
<svg width="100%" height="100%" viewBox="0 0 40 40" version="1.1" xmlns="http://www.w3.org/2000/svg" xmlns:xlink="http://www.w3.org/1999/xlink" xml:space="preserve" xmlns:serif="http://www.serif.com/" style="fill-rule:evenodd;clip-rule:evenodd;stroke-linejoin:round;stroke-miterlimit:2;">
    <g transform="translate(20 20) rotate(45) translate(-5 -20)">
        <path d="M3 0L7 0Q10 0 10 3L10 37Q10 40 7 40L4 40Q0 40 0 37L0 3Q0 0 3 0Z" fill="#000" />
    </g>
    <g transform="translate(20 20) rotate(135) translate(-5 -20)">
        <path d="M3 0L7 0Q10 0 10 3L10 37Q10 40 7 40L4 40Q0 40 0 37L0 3Q0 0 3 0Z" fill="#000" />
    </g>
</svg>
